<svg width="17" height="16" viewBox="0 0 17 16" fill="none" xmlns="http://www.w3.org/2000/svg">
<path fill-rule="evenodd" clip-rule="evenodd" d="M8.50004 1.83337C5.09428 1.83337 2.33337 4.59428 2.33337 8.00004C2.33337 11.4058 5.09428 14.1667 8.50004 14.1667C11.9058 14.1667 14.6667 11.4058 14.6667 8.00004C14.6667 4.59428 11.9058 1.83337 8.50004 1.83337ZM1.33337 8.00004C1.33337 4.042 4.542 0.833374 8.50004 0.833374C12.4581 0.833374 15.6667 4.042 15.6667 8.00004C15.6667 11.9581 12.4581 15.1667 8.50004 15.1667C4.542 15.1667 1.33337 11.9581 1.33337 8.00004ZM8.50004 4.83337C8.77618 4.83337 9.00004 5.05723 9.00004 5.33337V8.00004C9.00004 8.27618 8.77618 8.50004 8.50004 8.50004C8.2239 8.50004 8.00004 8.27618 8.00004 8.00004V5.33337C8.00004 5.05723 8.2239 4.83337 8.50004 4.83337ZM8.00004 10.6667C8.00004 10.3906 8.2239 10.1667 8.50004 10.1667H8.50671C8.78285 10.1667 9.00671 10.3906 9.00671 10.6667C9.00671 10.9428 8.78285 11.1667 8.50671 11.1667H8.50004C8.2239 11.1667 8.00004 10.9428 8.00004 10.6667Z" fill="#FF5959"/>
</svg>
