<svg width="143" height="33" viewBox="0 0 143 33" fill="none" xmlns="http://www.w3.org/2000/svg">
<path d="M5.84 18.84C4.29333 19.0533 3.01333 19.16 2 19.16C1.65333 19.16 1.48 19.0267 1.48 18.76C1.48 18.1467 1.89333 17.5067 2.72 16.84C3.57333 16.1467 4.94667 15.5467 6.84 15.04C7.69333 12 8.66667 9.21333 9.76 6.68C7.09333 6.81333 4.90667 7.69333 3.2 9.32C2.77333 9.74667 2.42667 10.08 2.16 10.32C1.89333 10.56 1.65333 10.68 1.44 10.68C1.25333 10.68 1.06667 10.52 0.88 10.2C0.693333 9.88 0.6 9.45333 0.6 8.92C0.626667 6.86667 2.01333 5.2 4.76 3.92C7.50667 2.64 10.8933 2.01333 14.92 2.04L26.92 2.24C27.64 2.24 28 2.52 28 3.08C28 3.24 27.8933 3.53333 27.68 3.96C27.4667 4.36 27.28 4.8 27.12 5.28C26.7733 6.24 26.0267 6.72 24.88 6.72H23.6L18.28 6.68H15.2C14.9867 8.2 14.3467 10.68 13.28 14.12L20.6 14.24C21.0267 14.24 21.24 14.4933 21.24 15C21.24 15.16 21.1733 15.44 21.04 15.84C20.9067 16.24 20.7867 16.6533 20.68 17.08C20.4667 17.96 20.0133 18.4 19.32 18.4L13.24 18.12H12.72C12.56 18.12 12.3733 18.1333 12.16 18.16C10.7733 23.2533 10.08 27.28 10.08 30.24C10.08 31.8133 8.54667 32.6 5.48 32.6C4.81333 32.6 4.41333 32.2667 4.28 31.6C4.17333 30.9067 4.12 30 4.12 28.88C4.12 26.48 4.69333 23.1333 5.84 18.84ZM31.7309 27.64C33.8109 27.64 35.8243 26.8133 37.7709 25.16C38.4909 24.5467 39.0776 23.9867 39.5309 23.48C39.9843 22.9467 40.3309 22.68 40.5709 22.68C40.9443 22.68 41.1309 23.0533 41.1309 23.8C41.1309 24.5467 40.9309 25.3867 40.5309 26.32C40.1309 27.2267 39.4643 28.12 38.5309 29C36.2376 31.16 33.0909 32.24 29.0909 32.24C25.9176 32.24 23.7576 31.0933 22.6109 28.8C22.2109 28 22.0109 26.8533 22.0109 25.36C22.0109 23.8667 22.3043 22.32 22.8909 20.72C23.4776 19.0933 24.2509 17.6933 25.2109 16.52C26.1976 15.3467 27.3309 14.44 28.6109 13.8C29.8909 13.1333 31.2509 12.8 32.6909 12.8C34.1576 12.8 35.2776 13.16 36.0509 13.88C36.8509 14.6 37.2509 15.5333 37.2509 16.68C37.2509 17.8267 36.9576 18.7733 36.3709 19.52C35.8109 20.24 35.0776 20.8533 34.1709 21.36C33.2643 21.84 32.2509 22.28 31.1309 22.68C30.0376 23.0533 28.9576 23.48 27.8909 23.96V24.96C27.9176 25.92 28.3176 26.6 29.0909 27C29.8643 27.4 30.7443 27.6133 31.7309 27.64ZM31.0509 16.36C29.6643 16.36 28.7043 17.9733 28.1709 21.2C28.7309 20.8267 29.2509 20.4933 29.7309 20.2C30.2376 19.9067 30.6776 19.6267 31.0509 19.36C31.8509 18.7733 32.2643 18.1067 32.2909 17.36C32.2909 16.6933 31.8776 16.36 31.0509 16.36ZM48.2497 12.64C50.0364 12.6133 51.3697 12.9467 52.2497 13.64C53.1297 14.3067 53.5697 15.28 53.5697 16.56C53.5697 17.8133 53.183 18.8933 52.4097 19.8C51.663 20.68 50.743 21.3067 49.6497 21.68C50.423 22.48 51.1164 23.2933 51.7297 24.12C52.3697 24.9467 52.6897 25.8133 52.6897 26.72C52.6897 28.5067 51.983 29.8933 50.5697 30.88C49.1564 31.84 47.183 32.32 44.6497 32.32C42.143 32.32 40.263 31.8267 39.0097 30.84C37.7564 29.8267 37.1297 28.6933 37.1297 27.44C37.1297 26.16 37.4364 25 38.0497 23.96C38.6897 22.92 39.3697 22.4 40.0897 22.4C40.5164 22.4 40.823 22.56 41.0097 22.88C41.1964 23.1733 41.543 24.0533 42.0497 25.52C42.2364 26.0533 42.543 26.56 42.9697 27.04C43.9564 28.1333 45.5164 28.68 47.6497 28.68C47.3297 27.6667 46.8097 26.8 46.0897 26.08C45.3964 25.3333 44.703 24.6133 44.0097 23.92C43.3164 23.2267 42.703 22.4933 42.1697 21.72C41.6364 20.92 41.3697 19.9867 41.3697 18.92C41.3697 17 42.0897 15.44 43.5297 14.24C44.8897 13.1733 46.463 12.64 48.2497 12.64ZM48.0897 20.04C49.1564 18.8933 49.6897 17.9733 49.6897 17.28C49.6897 16.96 49.5697 16.68 49.3297 16.44C49.1164 16.1733 48.7964 16.04 48.3697 16.04C47.943 16.04 47.5297 16.0933 47.1297 16.2C46.7564 16.3067 46.4497 16.3867 46.2097 16.44C46.2097 17.4533 46.8364 18.6533 48.0897 20.04ZM56.9444 29.84C56.651 29.12 56.4377 28.2933 56.3044 27.36C56.171 26.4 56.1044 25.0667 56.1044 23.36C56.1044 21.6533 56.4244 19.3467 57.0644 16.44H55.2644C54.9444 16.44 54.7844 16.3067 54.7844 16.04C54.7844 15.4 54.8377 14.88 54.9444 14.48C55.0777 14.0533 55.371 13.5733 55.8244 13.04H56.7844C57.1577 13.04 57.5577 13.0267 57.9844 13C59.2644 8.89333 60.571 6.84 61.9044 6.84C62.971 6.86667 63.7177 7.54667 64.1444 8.88C64.251 9.25333 64.371 9.65333 64.5044 10.08L62.8644 12.96C64.731 13.0133 65.9044 13.04 66.3844 13.04C66.891 13.04 67.1577 13.0933 67.1844 13.2C67.2377 13.28 67.2644 13.4133 67.2644 13.6C67.2644 14.08 67.1444 14.68 66.9044 15.4C66.691 16.12 66.4377 16.4667 66.1444 16.44L62.1444 16.24C61.5844 19.4933 61.3044 22.1867 61.3044 24.32C61.3044 26.4533 61.611 27.52 62.2244 27.52C62.731 27.52 63.651 27.1067 64.9844 26.28C66.3177 25.4267 67.2777 24.6133 67.8644 23.84C68.451 23.0667 68.931 22.68 69.3044 22.68C69.6777 22.68 69.8644 23.1333 69.8644 24.04C69.8644 24.9467 69.5444 25.88 68.9044 26.84C68.2644 27.7733 67.451 28.64 66.4644 29.44C65.5044 30.2133 64.4244 30.8533 63.2244 31.36C62.051 31.8667 61.0244 32.12 60.1444 32.12C59.2644 32.12 58.5844 31.92 58.1044 31.52C57.651 31.0933 57.2644 30.5333 56.9444 29.84ZM72.6797 32.12C70.013 32.12 68.6797 29.6267 68.6797 24.64C68.6797 21.92 69.013 19.4533 69.6797 17.24C70.7197 13.8267 71.893 12.12 73.1997 12.12C73.973 12.12 74.5864 12.64 75.0397 13.68C75.413 14.48 75.5864 15.2667 75.5597 16.04C75.5597 17.1067 75.2397 18.9867 74.5997 21.68C73.9864 24.0267 73.6797 25.48 73.6797 26.04C73.6797 26.6 73.813 26.9867 74.0797 27.2C74.373 27.4133 74.7064 27.52 75.0797 27.52C75.4797 27.52 75.973 27.2667 76.5597 26.76C77.1464 26.2533 77.733 25.7067 78.3197 25.12C78.9064 24.5067 79.4397 23.9467 79.9197 23.44C80.4264 22.9333 80.773 22.68 80.9597 22.68C81.333 22.68 81.5197 23.1333 81.5197 24.04C81.5197 25.9067 80.573 27.7333 78.6797 29.52C76.813 31.28 74.813 32.1467 72.6797 32.12ZM74.3197 8.88C73.5997 7.81333 73.2397 6.66667 73.2397 5.44C73.2397 4.21333 73.4264 3.2 73.7997 2.4C74.1997 1.57333 74.573 0.973332 74.9197 0.599999C75.2664 0.199999 75.6664 -4.76837e-07 76.1197 -4.76837e-07C76.8664 -4.76837e-07 77.5464 0.559999 78.1597 1.68C78.773 2.77333 79.0797 3.69333 79.0797 4.44C79.0797 5.82667 78.5864 6.92 77.5997 7.72C76.6397 8.49333 75.5464 8.88 74.3197 8.88ZM85.8403 14.4C85.8403 16.1867 85.5203 18.2133 84.8803 20.48C84.9336 21.3333 84.9603 22.16 84.9603 22.96C84.9603 23.76 85.0136 24.4533 85.1203 25.04C85.5203 26.1067 86.027 26.76 86.6403 27C87.1736 27 87.7603 26.5467 88.4003 25.64C89.0403 24.7067 89.6936 23.6 90.3603 22.32C90.0403 21.0933 89.8803 19.9333 89.8803 18.84C89.8803 16.92 90.1736 15.52 90.7603 14.64C91.4803 13.52 92.5736 12.96 94.0403 12.96C95.507 12.96 96.4803 13.52 96.9603 14.64C97.147 15.0667 97.2403 15.5467 97.2403 16.08C97.2403 17.04 97.0003 18.0267 96.5203 19.04C96.0403 20.0267 95.267 21.3333 94.2003 22.96C94.6803 24.3733 95.4003 25.08 96.3603 25.08C97.5336 25.0533 98.547 24.64 99.4003 23.84C99.7203 23.52 99.987 23.24 100.2 23C100.44 22.76 100.68 22.64 100.92 22.64C101.294 22.64 101.48 23.08 101.48 23.96C101.48 25.6133 101 26.8267 100.04 27.6C99.107 28.3467 97.9203 28.72 96.4803 28.72C94.587 28.72 93.0803 27.8933 91.9603 26.24C88.8403 30.2933 86.227 32.32 84.1203 32.32C83.2936 32.32 82.4803 31.1467 81.6803 28.8C80.8803 26.4533 80.267 23.28 79.8403 19.28C79.5203 16.7467 79.707 14.9333 80.4003 13.84C80.987 12.9867 82.1336 12.56 83.8403 12.56C84.4803 12.56 84.9736 12.76 85.3203 13.16C85.667 13.5333 85.8403 13.9467 85.8403 14.4ZM104.477 32.12C101.81 32.12 100.477 29.6267 100.477 24.64C100.477 21.92 100.81 19.4533 101.477 17.24C102.517 13.8267 103.69 12.12 104.997 12.12C105.77 12.12 106.383 12.64 106.837 13.68C107.21 14.48 107.383 15.2667 107.357 16.04C107.357 17.1067 107.037 18.9867 106.397 21.68C105.783 24.0267 105.477 25.48 105.477 26.04C105.477 26.6 105.61 26.9867 105.877 27.2C106.17 27.4133 106.503 27.52 106.877 27.52C107.277 27.52 107.77 27.2667 108.357 26.76C108.943 26.2533 109.53 25.7067 110.117 25.12C110.703 24.5067 111.237 23.9467 111.717 23.44C112.223 22.9333 112.57 22.68 112.757 22.68C113.13 22.68 113.317 23.1333 113.317 24.04C113.317 25.9067 112.37 27.7333 110.477 29.52C108.61 31.28 106.61 32.1467 104.477 32.12ZM106.117 8.88C105.397 7.81333 105.037 6.66667 105.037 5.44C105.037 4.21333 105.223 3.2 105.597 2.4C105.997 1.57333 106.37 0.973332 106.717 0.599999C107.063 0.199999 107.463 -4.76837e-07 107.917 -4.76837e-07C108.663 -4.76837e-07 109.343 0.559999 109.957 1.68C110.57 2.77333 110.877 3.69333 110.877 4.44C110.877 5.82667 110.383 6.92 109.397 7.72C108.437 8.49333 107.343 8.88 106.117 8.88ZM113.077 29.84C112.784 29.12 112.571 28.2933 112.437 27.36C112.304 26.4 112.237 25.0667 112.237 23.36C112.237 21.6533 112.557 19.3467 113.197 16.44H111.397C111.077 16.44 110.917 16.3067 110.917 16.04C110.917 15.4 110.971 14.88 111.077 14.48C111.211 14.0533 111.504 13.5733 111.957 13.04H112.917C113.291 13.04 113.691 13.0267 114.117 13C115.397 8.89333 116.704 6.84 118.037 6.84C119.104 6.86667 119.851 7.54667 120.277 8.88C120.384 9.25333 120.504 9.65333 120.637 10.08L118.997 12.96C120.864 13.0133 122.037 13.04 122.517 13.04C123.024 13.04 123.291 13.0933 123.317 13.2C123.371 13.28 123.397 13.4133 123.397 13.6C123.397 14.08 123.277 14.68 123.037 15.4C122.824 16.12 122.571 16.4667 122.277 16.44L118.277 16.24C117.717 19.4933 117.437 22.1867 117.437 24.32C117.437 26.4533 117.744 27.52 118.357 27.52C118.864 27.52 119.784 27.1067 121.117 26.28C122.451 25.4267 123.411 24.6133 123.997 23.84C124.584 23.0667 125.064 22.68 125.437 22.68C125.811 22.68 125.997 23.1333 125.997 24.04C125.997 24.9467 125.677 25.88 125.037 26.84C124.397 27.7733 123.584 28.64 122.597 29.44C121.637 30.2133 120.557 30.8533 119.357 31.36C118.184 31.8667 117.157 32.12 116.277 32.12C115.397 32.12 114.717 31.92 114.237 31.52C113.784 31.0933 113.397 30.5333 113.077 29.84ZM133.333 27.64C135.413 27.64 137.426 26.8133 139.373 25.16C140.093 24.5467 140.679 23.9867 141.133 23.48C141.586 22.9467 141.933 22.68 142.173 22.68C142.546 22.68 142.733 23.0533 142.733 23.8C142.733 24.5467 142.533 25.3867 142.133 26.32C141.733 27.2267 141.066 28.12 140.133 29C137.839 31.16 134.693 32.24 130.693 32.24C127.519 32.24 125.359 31.0933 124.213 28.8C123.813 28 123.613 26.8533 123.613 25.36C123.613 23.8667 123.906 22.32 124.493 20.72C125.079 19.0933 125.853 17.6933 126.813 16.52C127.799 15.3467 128.933 14.44 130.213 13.8C131.493 13.1333 132.853 12.8 134.293 12.8C135.759 12.8 136.879 13.16 137.653 13.88C138.453 14.6 138.853 15.5333 138.853 16.68C138.853 17.8267 138.559 18.7733 137.973 19.52C137.413 20.24 136.679 20.8533 135.773 21.36C134.866 21.84 133.853 22.28 132.733 22.68C131.639 23.0533 130.559 23.48 129.493 23.96V24.96C129.519 25.92 129.919 26.6 130.693 27C131.466 27.4 132.346 27.6133 133.333 27.64ZM132.653 16.36C131.266 16.36 130.306 17.9733 129.773 21.2C130.333 20.8267 130.853 20.4933 131.333 20.2C131.839 19.9067 132.279 19.6267 132.653 19.36C133.453 18.7733 133.866 18.1067 133.893 17.36C133.893 16.6933 133.479 16.36 132.653 16.36Z" fill="#FF598B"/>
</svg>
