<svg width="17" height="16" viewBox="0 0 17 16" fill="none" xmlns="http://www.w3.org/2000/svg">
<path fill-rule="evenodd" clip-rule="evenodd" d="M5.83325 1.8335C5.61224 1.8335 5.40028 1.92129 5.244 2.07757C5.08772 2.23385 4.99992 2.44582 4.99992 2.66683V14.1668H11.9999V2.66683C11.9999 2.44582 11.9121 2.23385 11.7558 2.07757C11.5996 1.92129 11.3876 1.8335 11.1666 1.8335H5.83325ZM12.9999 5.50016V2.66683C12.9999 2.1806 12.8068 1.71428 12.4629 1.37047C12.1191 1.02665 11.6528 0.833496 11.1666 0.833496H5.83325C5.34702 0.833496 4.88071 1.02665 4.53689 1.37047C4.19307 1.71428 3.99992 2.1806 3.99992 2.66683V7.50016H3.16659C2.68035 7.50016 2.21404 7.69332 1.87022 8.03713C1.52641 8.38095 1.33325 8.84727 1.33325 9.3335V13.3335C1.33325 13.8197 1.52641 14.286 1.87022 14.6299C2.21404 14.9737 2.68035 15.1668 3.16659 15.1668H13.8333C14.3195 15.1668 14.7858 14.9737 15.1296 14.6299C15.4734 14.286 15.6666 13.8197 15.6666 13.3335V7.3335C15.6666 6.84726 15.4734 6.38095 15.1296 6.03713C14.7858 5.69332 14.3195 5.50016 13.8333 5.50016H12.9999ZM12.9999 6.50016V14.1668H13.8333C14.0543 14.1668 14.2662 14.079 14.4225 13.9228C14.5788 13.7665 14.6666 13.5545 14.6666 13.3335V7.3335C14.6666 7.11248 14.5788 6.90052 14.4225 6.74424C14.2662 6.58796 14.0543 6.50016 13.8333 6.50016H12.9999ZM3.99992 8.50016H3.16659C2.94557 8.50016 2.73361 8.58796 2.57733 8.74424C2.42105 8.90052 2.33325 9.11248 2.33325 9.3335V13.3335C2.33325 13.5545 2.42105 13.7665 2.57733 13.9228C2.73361 14.079 2.94557 14.1668 3.16659 14.1668H3.99992V8.50016ZM6.66658 4.00016C6.66658 3.72402 6.89044 3.50016 7.16658 3.50016H9.83325C10.1094 3.50016 10.3333 3.72402 10.3333 4.00016C10.3333 4.2763 10.1094 4.50016 9.83325 4.50016H7.16658C6.89044 4.50016 6.66658 4.2763 6.66658 4.00016ZM6.66658 6.66683C6.66658 6.39069 6.89044 6.16683 7.16658 6.16683H9.83325C10.1094 6.16683 10.3333 6.39069 10.3333 6.66683C10.3333 6.94297 10.1094 7.16683 9.83325 7.16683H7.16658C6.89044 7.16683 6.66658 6.94297 6.66658 6.66683ZM6.66658 9.3335C6.66658 9.05735 6.89044 8.8335 7.16658 8.8335H9.83325C10.1094 8.8335 10.3333 9.05735 10.3333 9.3335C10.3333 9.60964 10.1094 9.8335 9.83325 9.8335H7.16658C6.89044 9.8335 6.66658 9.60964 6.66658 9.3335ZM6.66658 12.0002C6.66658 11.724 6.89044 11.5002 7.16658 11.5002H9.83325C10.1094 11.5002 10.3333 11.724 10.3333 12.0002C10.3333 12.2763 10.1094 12.5002 9.83325 12.5002H7.16658C6.89044 12.5002 6.66658 12.2763 6.66658 12.0002Z" fill="#869198"/>
</svg>
