<svg width="16" height="16" viewBox="0 0 16 16" fill="none" xmlns="http://www.w3.org/2000/svg">
<g clip-path="url(#clip0_2140_1005)">
<path fill-rule="evenodd" clip-rule="evenodd" d="M5.33325 1.8335C5.11224 1.8335 4.90028 1.92129 4.744 2.07757C4.58772 2.23385 4.49992 2.44582 4.49992 2.66683V14.1668H11.4999V2.66683C11.4999 2.44582 11.4121 2.23385 11.2558 2.07757C11.0996 1.92129 10.8876 1.8335 10.6666 1.8335H5.33325ZM12.4999 5.50016V2.66683C12.4999 2.1806 12.3068 1.71428 11.9629 1.37047C11.6191 1.02665 11.1528 0.833496 10.6666 0.833496H5.33325C4.84702 0.833496 4.38071 1.02665 4.03689 1.37047C3.69307 1.71428 3.49992 2.1806 3.49992 2.66683V7.50016H2.66659C2.18035 7.50016 1.71404 7.69332 1.37022 8.03713C1.02641 8.38095 0.833252 8.84727 0.833252 9.3335V13.3335C0.833252 13.8197 1.02641 14.286 1.37022 14.6299C1.71404 14.9737 2.18035 15.1668 2.66659 15.1668H13.3333C13.8195 15.1668 14.2858 14.9737 14.6296 14.6299C14.9734 14.286 15.1666 13.8197 15.1666 13.3335V7.3335C15.1666 6.84726 14.9734 6.38095 14.6296 6.03713C14.2858 5.69332 13.8195 5.50016 13.3333 5.50016H12.4999ZM12.4999 6.50016V14.1668H13.3333C13.5543 14.1668 13.7662 14.079 13.9225 13.9228C14.0788 13.7665 14.1666 13.5545 14.1666 13.3335V7.3335C14.1666 7.11248 14.0788 6.90052 13.9225 6.74424C13.7662 6.58796 13.5543 6.50016 13.3333 6.50016H12.4999ZM3.49992 8.50016H2.66659C2.44557 8.50016 2.23361 8.58796 2.07733 8.74424C1.92105 8.90052 1.83325 9.11248 1.83325 9.3335V13.3335C1.83325 13.5545 1.92105 13.7665 2.07733 13.9228C2.23361 14.079 2.44557 14.1668 2.66659 14.1668H3.49992V8.50016ZM6.16658 4.00016C6.16658 3.72402 6.39044 3.50016 6.66658 3.50016H9.33325C9.60939 3.50016 9.83325 3.72402 9.83325 4.00016C9.83325 4.2763 9.60939 4.50016 9.33325 4.50016H6.66658C6.39044 4.50016 6.16658 4.2763 6.16658 4.00016ZM6.16658 6.66683C6.16658 6.39069 6.39044 6.16683 6.66658 6.16683H9.33325C9.60939 6.16683 9.83325 6.39069 9.83325 6.66683C9.83325 6.94297 9.60939 7.16683 9.33325 7.16683H6.66658C6.39044 7.16683 6.16658 6.94297 6.16658 6.66683ZM6.16658 9.3335C6.16658 9.05735 6.39044 8.8335 6.66658 8.8335H9.33325C9.60939 8.8335 9.83325 9.05735 9.83325 9.3335C9.83325 9.60964 9.60939 9.8335 9.33325 9.8335H6.66658C6.39044 9.8335 6.16658 9.60964 6.16658 9.3335ZM6.16658 12.0002C6.16658 11.724 6.39044 11.5002 6.66658 11.5002H9.33325C9.60939 11.5002 9.83325 11.724 9.83325 12.0002C9.83325 12.2763 9.60939 12.5002 9.33325 12.5002H6.66658C6.39044 12.5002 6.16658 12.2763 6.16658 12.0002Z" fill="#59B2FF"/>
</g>
<defs>
<clipPath id="clip0_2140_1005">
<rect width="16" height="16" fill="white"/>
</clipPath>
</defs>
</svg>
