<svg width="24" height="24" viewBox="0 0 24 24" fill="none" xmlns="http://www.w3.org/2000/svg">
<path fill-rule="evenodd" clip-rule="evenodd" d="M7 2.75C6.9337 2.75 6.87011 2.77634 6.82322 2.82322C6.77634 2.87011 6.75 2.9337 6.75 3V11.25H17.25V3C17.25 2.93369 17.2237 2.87011 17.1768 2.82322C17.1299 2.77634 17.0663 2.75 17 2.75H14.75V6C14.75 6.41421 14.4142 6.75 14 6.75C13.5858 6.75 13.25 6.41421 13.25 6V2.75H10.75V4C10.75 4.41421 10.4142 4.75 10 4.75C9.58579 4.75 9.25 4.41421 9.25 4V2.75H7ZM7 1.25C6.53587 1.25 6.09075 1.43437 5.76256 1.76256C5.43437 2.09075 5.25 2.53587 5.25 3V11.4189C5.07072 11.5039 4.90555 11.6196 4.76256 11.7626C4.43438 12.0908 4.25 12.5359 4.25 13V14C4.25 14.7293 4.53973 15.4288 5.05546 15.9445C5.57118 16.4603 6.27065 16.75 7 16.75H9C9.06631 16.75 9.12989 16.7763 9.17678 16.8232C9.22366 16.8701 9.25 16.9337 9.25 17V19.9C9.25 20.6293 9.53973 21.3288 10.0555 21.8445C10.5712 22.3603 11.2707 22.65 12 22.65C12.7293 22.65 13.4288 22.3603 13.9445 21.8445C14.4603 21.3288 14.75 20.6293 14.75 19.9V17C14.75 16.9337 14.7763 16.8701 14.8232 16.8232C14.8701 16.7763 14.9337 16.75 15 16.75H17C17.7293 16.75 18.4288 16.4603 18.9445 15.9445C19.4603 15.4288 19.75 14.7293 19.75 14V13C19.75 12.5359 19.5656 12.0908 19.2374 11.7626C19.0945 11.6196 18.9293 11.5039 18.75 11.4189V3C18.75 2.53587 18.5656 2.09075 18.2374 1.76256C17.9092 1.43437 17.4641 1.25 17 1.25H7ZM6 12.75C5.9337 12.75 5.87011 12.7763 5.82322 12.8232C5.77634 12.8701 5.75 12.9337 5.75 13V14C5.75 14.3315 5.8817 14.6495 6.11612 14.8839C6.35054 15.1183 6.66848 15.25 7 15.25H9C9.46413 15.25 9.90925 15.4344 10.2374 15.7626C10.5656 16.0908 10.75 16.5359 10.75 17V19.9C10.75 20.2315 10.8817 20.5495 11.1161 20.7839C11.3505 21.0183 11.6685 21.15 12 21.15C12.3315 21.15 12.6495 21.0183 12.8839 20.7839C13.1183 20.5495 13.25 20.2315 13.25 19.9V17C13.25 16.5359 13.4344 16.0908 13.7626 15.7626C14.0908 15.4344 14.5359 15.25 15 15.25H17C17.3315 15.25 17.6495 15.1183 17.8839 14.8839C18.1183 14.6495 18.25 14.3315 18.25 14V13C18.25 12.9337 18.2237 12.8701 18.1768 12.8232C18.1299 12.7763 18.0663 12.75 18 12.75H6Z" fill="#869198"/>
</svg>
