<svg width="17" height="16" viewBox="0 0 17 16" fill="none" xmlns="http://www.w3.org/2000/svg">
<path fill-rule="evenodd" clip-rule="evenodd" d="M8.14645 1.64645C8.34171 1.45118 8.65829 1.45118 8.85355 1.64645L12.1869 4.97978C12.3821 5.17504 12.3821 5.49162 12.1869 5.68689C11.9916 5.88215 11.675 5.88215 11.4798 5.68689L9 3.20711V10C9 10.2761 8.77614 10.5 8.5 10.5C8.22386 10.5 8 10.2761 8 10V3.20711L5.52022 5.68689C5.32496 5.88215 5.00838 5.88215 4.81311 5.68689C4.61785 5.49162 4.61785 5.17504 4.81311 4.97978L8.14645 1.64645ZM2.5 9.5C2.77614 9.5 3 9.72386 3 10V12.6667C3 12.8877 3.0878 13.0996 3.24408 13.2559C3.40036 13.4122 3.61232 13.5 3.83333 13.5H13.1667C13.3877 13.5 13.5996 13.4122 13.7559 13.2559C13.9122 13.0996 14 12.8877 14 12.6667V10C14 9.72386 14.2239 9.5 14.5 9.5C14.7761 9.5 15 9.72386 15 10V12.6667C15 13.1529 14.8068 13.6192 14.463 13.963C14.1192 14.3068 13.6529 14.5 13.1667 14.5H3.83333C3.3471 14.5 2.88079 14.3068 2.53697 13.963C2.19315 13.6192 2 13.1529 2 12.6667V10C2 9.72386 2.22386 9.5 2.5 9.5Z" fill="#59B2FF"/>
</svg>
