<svg width="16" height="16" viewBox="0 0 16 16" fill="none" xmlns="http://www.w3.org/2000/svg">
<path fill-rule="evenodd" clip-rule="evenodd" d="M2.66659 4.5C2.20635 4.5 1.83325 4.8731 1.83325 5.33333V10.6667C1.83325 11.1269 2.20635 11.5 2.66659 11.5H9.33325C9.79349 11.5 10.1666 11.1269 10.1666 10.6667V8.6735C10.1665 8.66864 10.1665 8.66378 10.1666 8.65892V7.00949C10.1665 7.00347 10.1665 6.99746 10.1666 6.99145V5.33333C10.1666 4.8731 9.79349 4.5 9.33325 4.5H2.66659ZM11.1666 6.12939V5.33333C11.1666 4.32081 10.3458 3.5 9.33325 3.5H2.66659C1.65406 3.5 0.833252 4.32081 0.833252 5.33333V10.6667C0.833252 11.6792 1.65406 12.5 2.66659 12.5H9.33325C10.3458 12.5 11.1666 11.6792 11.1666 10.6667V9.60093L13.8716 11.4043C13.9971 11.4878 14.1429 11.5357 14.2934 11.5429C14.444 11.5501 14.5937 11.5163 14.7266 11.4452C14.8595 11.374 14.9706 11.2682 15.0481 11.1389C15.1255 11.0096 15.1665 10.8617 15.1666 10.7109V5.24681C15.1666 5.24677 15.1666 5.24686 15.1666 5.24681C15.1666 5.10024 15.128 4.9561 15.0545 4.82923C14.9811 4.70231 14.8755 4.59702 14.7484 4.52398C14.6212 4.45094 14.477 4.41274 14.3304 4.41324C14.1838 4.41374 14.0399 4.45291 13.9133 4.52681L11.1666 6.12939ZM11.1666 7.28715V8.39908L14.1666 10.3991V5.53677L11.1666 7.28715Z" fill="#59B2FF"/>
</svg>
