<svg width="17" height="16" viewBox="0 0 17 16" fill="none" xmlns="http://www.w3.org/2000/svg">
<path fill-rule="evenodd" clip-rule="evenodd" d="M3.16659 4.5C2.70635 4.5 2.33325 4.8731 2.33325 5.33333V10.6667C2.33325 11.1269 2.70635 11.5 3.16659 11.5H9.83325C10.2935 11.5 10.6666 11.1269 10.6666 10.6667V8.6735C10.6665 8.66864 10.6665 8.66378 10.6666 8.65892V7.00949C10.6665 7.00347 10.6665 6.99746 10.6666 6.99145V5.33333C10.6666 4.8731 10.2935 4.5 9.83325 4.5H3.16659ZM11.6666 6.12939V5.33333C11.6666 4.32081 10.8458 3.5 9.83325 3.5H3.16659C2.15406 3.5 1.33325 4.32081 1.33325 5.33333V10.6667C1.33325 11.6792 2.15406 12.5 3.16659 12.5H9.83325C10.8458 12.5 11.6666 11.6792 11.6666 10.6667V9.60093L14.3716 11.4043C14.4971 11.4878 14.6429 11.5357 14.7934 11.5429C14.944 11.5501 15.0937 11.5163 15.2266 11.4452C15.3595 11.374 15.4706 11.2682 15.5481 11.1389C15.6255 11.0096 15.6665 10.8617 15.6666 10.7109V5.24681C15.6666 5.24677 15.6666 5.24686 15.6666 5.24681C15.6666 5.10024 15.628 4.9561 15.5545 4.82923C15.4811 4.70231 15.3755 4.59702 15.2484 4.52398C15.1212 4.45094 14.977 4.41274 14.8304 4.41324C14.6838 4.41374 14.5399 4.45291 14.4133 4.52681L11.6666 6.12939ZM11.6666 7.28715V8.39908L14.6666 10.3991V5.53677L11.6666 7.28715Z" fill="#59B2FF"/>
</svg>
